<?xml version="1.0" encoding="utf-8"?>
<!-- Generator: Adobe Illustrator 22.0.1, SVG Export Plug-In . SVG Version: 6.00 Build 0)  -->
<svg version="1.1" id="Layer_1" xmlns="http://www.w3.org/2000/svg" xmlns:xlink="http://www.w3.org/1999/xlink" x="0px" y="0px"
	 viewBox="0 0 1231.1 284" style="enable-background:new 0 0 1231.1 284;" xml:space="preserve">
<style type="text/css">
	.st0{fill:#FFFFFF;}
	.st1{fill:#0CCD93;}
</style>
<g>
	<polygon class="st0" points="1067.8,234.9 1037.6,234.9 1037.6,117.9 1012.4,117.9 1012.4,91.9 1037.6,91.9 1037.6,48.4 
		1067.8,48.4 1067.8,91.9 1097.5,91.9 1097.5,117.9 1097.5,117.9 1067.8,117.9 	"/>
	<path class="st0" d="M1163.5,236.5c-11.8,0-24.3-3.6-34.2-10.6c-12.1-8.6-19-22.7-19-37.5l0,0h27.9v0.4c0.3,5.5,2.8,10.8,7.3,14.1
		c0.9,0.7,1.8,1.2,2.8,1.7l0.1,0.1c6.1,3.6,13.1,5.1,21.4,4.6c11.8-0.8,19.7-7.5,19.9-16.9c0.2-8-5.6-13.5-17.5-16.2l-19.2-4.5
		c-28.6-7.7-40.9-22.7-38.6-47.2l0,0c2.1-20.8,24.1-37,50.1-37c20.2,0,35.7,7.6,43.9,21c3.8,6.2,5.6,13.5,5.5,20.8v0.8h-29.2l0,0
		c0.1-4.8-2.1-9.5-6.1-12.2c-3.5-2.4-8.2-3.7-13.5-3.7c-9.6,0-17.7,4.7-19.6,11.5c-1.1,4.3-1.1,7.2,0.2,10.1
		c2.1,4.4,6.9,7.5,15.6,10l20.6,5.1c17.1,4.2,37.4,15,37.4,42.2c0,12.9-5.8,23.9-16.8,32C1192.2,232.5,1178.4,236.5,1163.5,236.5z"
		/>
	<path class="st0" d="M400.4,235h-30.2v-80.7c0-22.4-11.5-35.7-30.6-35.7c-9.8-0.2-18.3,3.1-24.6,9.3c-7.2,7.1-11.2,17.8-11.2,30
		V235h-30.2v-81c0-21.9-11.1-35.4-28.8-35.4c-18.2,0-37.5,10.3-37.5,39.3V235H177V91.9h30.2V109c3.7-5.2,9-9.7,15.8-13.2
		c6.6-3.4,14.6-5.8,21.4-6.3c5.5-0.3,10.8,0,15.7,0.9c17.1,2.6,29.3,11.2,36.4,25.5c12.8-22.2,33.3-27,48.5-27
		c17.8,0,31.7,5.7,41.3,16.8c9.4,11,14.2,26.7,14.2,46.7V235H400.4z"/>
	<path class="st0" d="M496.1,238c-19.5,0-37.6-7.2-51-20.4c-13.9-13.7-21.6-33-21.6-54.3c0-21.7,7.5-40.5,21.6-54.3
		c13.3-13,31.4-20.1,51-20.1c19.8,0,38,8,47.7,20.7V91.9h29.9V235h-29.9v-18.3C533.9,229.8,515.8,238,496.1,238z M498.5,118.6
		c-25.6,0-44.1,18.7-44.1,44.4c0,25.9,19,45.3,44.1,45.3c21.7,0,45-14.2,45-45.3C543.5,134.1,520.3,118.6,498.5,118.6z"/>
	<polygon class="st0" points="858.8,235 818.8,235 755.2,167.1 755.2,235 723.3,235 723.3,7.2 755.2,7.2 755.2,138.9 799.5,91.8 
		839.7,91.8 782,153 	"/>
	<path class="st0" d="M635.2,235h-31.7V91.9h31.7v16.9c10.1-11.2,23.2-16.9,38.9-16.9c10.8,0.2,20.5,3.3,28.9,9.2
		c1,0.7,3.5,2.3,4.7,3.1c0.4,0.3,0.5,0.9,0.2,1.3l-22.6,28c-0.4,0.5-1.2,0.7-1.8,0.3c-1.1-0.6-2.8-1.6-4.1-2.3
		c-5.3-3-10.4-5.1-15.8-5.1c-7.4,0-13.9,2.5-19.2,7.5l-0.1,0.1c-5.9,4.9-9,13-9.2,24L635.2,235L635.2,235z"/>
	<path class="st0" d="M980.1,109c-12.8-13-30.8-20.1-50.8-20.1c-8.5,0-16.6,1.3-24.2,3.7c-8.8,2.8-16.9,7.2-23.9,13
		c-1.3,1.1-2.6,2.2-3.8,3.4c-14,13.6-21.3,32.3-21.3,54c0,43.4,30.8,75,73.2,75c22,0,41.7-8.1,55-22.3l-19.1-20.4
		c-8.1,9.6-20.9,15.2-35,15.2c-21.8,0-38.7-13-43.2-33c-0.1-0.5,0-1.1,0.3-1.5s0.8-0.6,1.3-0.6h111.7c0,0,0-10.5,0-12.3
		C1000.4,141.2,993.4,122.5,980.1,109z M886.6,151.1c0,0,0.2-1.2,0.5-2.6c2.1-9.2,6.8-16.8,13.4-22.3c7.1-5.9,16.3-9.3,26.9-9.7
		c0.6,0,1.2,0,1.8,0c20.8,0,36,12.2,40.4,32.1c0.3,1.3,0.6,2.5,0.6,2.5H886.6z"/>
	<g>
		<path class="st1" d="M143.4,7.2l-2.2,5.5L126,50.3c-0.2-0.1-0.4-0.3-0.6-0.5c-5.5-4-11.9-7.3-18.7-9.7l13.4-33h23.3V7.2z"/>
		<path class="st1" d="M47,246.2l-12.1,29.9H11.6l2.2-5.5l14.5-35.9C33.7,239.3,40,243.2,47,246.2z"/>
		<path class="st0" d="M15.4,101.4C15.4,67.3,47.1,47,77.6,47c34.6,0,59.4,20.8,61.8,51.7c0.2,2.3,0.2,6.8,0.2,6.8h-28.9
			c0,0,0-3.4-0.5-6.2c0,0-0.3-1.5-0.3-1.6c-0.1-0.4-0.2-0.9-0.3-1.3c-0.1-0.5-0.2-0.9-0.4-1.4c-0.1-0.5-0.3-0.9-0.4-1.3
			c-1.8-4.9-4.9-9-9.1-12.1c-0.4-0.3-0.8-0.6-1.2-0.8c-0.4-0.2-0.7-0.5-1.1-0.7c-0.3-0.2-0.6-0.4-0.9-0.5c-0.2-0.1-0.5-0.3-0.7-0.4
			c-0.6-0.3-1.3-0.6-1.9-0.9s-1.3-0.6-2-0.8l0,0c-3-1.1-6.3-1.9-9.9-2.2c-1.5-0.2-3.1-0.2-4.8-0.2c-16.2,0-32.9,9.8-32.9,26.2
			c0,4,0,15.4,18.3,22.1l-10.4,25.8C27.8,140.1,15.4,124.1,15.4,101.4z"/>
		<path class="st0" d="M145,191.6c-3.6,30.1-29.4,50.4-64.1,50.4c-17.4,0-33.8-5.7-46.2-16.1C22.8,216,15.1,202.1,14,188.5
			c-0.3-3.4,0-7,0-7h28.3c0,0,0.1,2.3,0.5,4.6c0.4,1.9,1,4.2,1.4,5.2c0.1,0.2,0.2,0.4,0.2,0.7c0.3,0.9,0.7,1.8,1.2,2.7
			c0.1,0.2,0.2,0.4,0.3,0.7c0.1,0.2,0.2,0.4,0.4,0.7c0.5,0.8,1,1.7,1.6,2.5l0,0c0.2,0.4,0.5,0.7,0.8,1.1c1.9,2.5,4.3,4.9,7,6.9
			c0.2,0.2,0.4,0.3,0.7,0.5c0.2,0.2,0.4,0.3,0.7,0.5c3.5,2.4,7.6,4.3,12.2,5.6c3.6,1,7.4,1.5,11.5,1.5c15.3,0,32.7-6.7,35.6-25.6
			c1.4-18.2-13.6-26.3-25.4-29.9l10.4-25.8c14.2,4.6,25.2,11.3,32.6,19.7C143.2,163.5,146.9,176.5,145,191.6z"/>
		<path class="st1" d="M101.1,112.9L101.1,112.9l-2.4,5.8l-19,47l-13,32.2c-0.6-0.3-1.1-0.7-1.6-1c0,0-0.3-0.2-0.4-0.2l-0.6-0.5
			c-11.6-8.2-9.9-23.3-9.4-26.2c0-0.3,0.1-0.6,0.2-0.9l3.2-7.9L77,114.4l11.4-28.1l2.2,1C102,93.3,101.1,112.9,101.1,112.9z"/>
	</g>
</g>
</svg>
